<?xml version="1.0" encoding="UTF-8"?>
<svg id="Ebene_2" xmlns="http://www.w3.org/2000/svg" viewBox="0 0 943.4 301.19">
  <g id="Ebene_1-2" data-name="Ebene_1">
    <g>
      <rect x="409.68" y="54.41" width="40.81" height="246.45" rx="12.45" ry="12.45"/>
      <rect x="820.17" y="54.41" width="40.81" height="246.45" rx="12.45" ry="12.45"/>
      <rect x="866.02" y="176.42" width="40.81" height="134.94" rx="12.45" ry="12.45" transform="translate(1685.67 -210.45) rotate(135)"/>
      <rect x="902.59" y="54.41" width="40.81" height="162.02" rx="12.45" ry="12.45"/>
      <rect x="82.42" width="40.81" height="301.19" rx="12.45" ry="12.45"/>
      <rect x="492.5" y="-410.09" width="40.81" height="860.98" rx="12.45" ry="12.45" transform="translate(533.31 -492.5) rotate(90)"/>
      <rect x="450.89" y="218.85" width="40.81" height="123.23" rx="12.45" ry="12.45" transform="translate(751.76 -190.84) rotate(90)"/>
      <g>
        <rect x="546.51" y="54.41" width="40.81" height="246.45" rx="12.45" ry="12.45"/>
        <rect x="587.72" y="218.85" width="40.81" height="123.23" rx="12.45" ry="12.45" transform="translate(888.59 -327.67) rotate(90)"/>
      </g>
      <rect x="272.85" y="54.41" width="40.81" height="246.45" rx="12.45" ry="12.45"/>
      <rect x="314.06" y="218.85" width="40.81" height="123.23" rx="12.45" ry="12.45" transform="translate(614.93 -54.01) rotate(90)"/>
      <rect x="314.06" y="13.2" width="40.81" height="123.23" rx="12.45" ry="12.45" transform="translate(409.28 -259.65) rotate(90)"/>
      <rect x="355.27" y="54.41" width="40.81" height="246.45" rx="12.45" ry="12.45"/>
      <rect x="683.34" y="54.41" width="40.81" height="246.45" rx="12.45" ry="12.45"/>
      <rect x="724.55" y="218.85" width="40.81" height="123.23" rx="12.45" ry="12.45" transform="translate(1025.42 -464.5) rotate(90)"/>
      <rect x="724.55" y="13.2" width="40.81" height="123.23" rx="12.45" ry="12.45" transform="translate(819.77 -670.14) rotate(90)"/>
      <rect x="704.02" y="152.94" width="40.81" height="82.16" rx="12.45" ry="12.45" transform="translate(918.44 -530.4) rotate(90)"/>
      <rect x="861.38" y="13.2" width="40.81" height="123.23" rx="12.45" ry="12.45" transform="translate(956.61 -806.97) rotate(90)"/>
      <rect x="861.38" y="136.43" width="40.81" height="123.23" rx="12.45" ry="12.45" transform="translate(1079.83 -683.74) rotate(90)"/>
      <rect x="136.82" y="54.41" width="40.81" height="185.24" rx="12.45" ry="12.45"/>
      <rect x="136.82" y="260.05" width="40.81" height="40.81" rx="12.45" ry="12.45"/>
      <rect x="179.5" y="174.98" width="40.81" height="138.86" rx="12.45" ry="12.45" transform="translate(515.31 259.12) rotate(131.95)"/>
      <rect x="179.09" y="45.98" width="40.81" height="171.15" rx="12.45" ry="12.45" transform="translate(110.12 -90.07) rotate(34.63)"/>
      <rect x="41.21" y="219.17" width="40.81" height="123.23" rx="12.45" ry="12.45" transform="translate(342.4 219.17) rotate(90)"/>
    </g>
  </g>
</svg>